<svg xmlns="http://www.w3.org/2000/svg" xmlns:xlink="http://www.w3.org/1999/xlink" width="500" zoomAndPan="magnify" viewBox="0 0 375 374.999991" height="500" preserveAspectRatio="xMidYMid meet" version="1.0"><defs><g/><clipPath id="2fd7625322"><path d="M 79.503906 75.296875 L 295.492188 75.296875 L 295.492188 291.285156 L 79.503906 291.285156 Z M 79.503906 75.296875 " clip-rule="nonzero"/></clipPath><clipPath id="46abeedf0d"><path d="M 187.5 75.296875 C 127.855469 75.296875 79.503906 123.644531 79.503906 183.289062 C 79.503906 242.933594 127.855469 291.285156 187.5 291.285156 C 247.144531 291.285156 295.492188 242.933594 295.492188 183.289062 C 295.492188 123.644531 247.144531 75.296875 187.5 75.296875 Z M 187.5 75.296875 " clip-rule="nonzero"/></clipPath><clipPath id="9bf0ed1cb5"><path d="M 84.886719 80.675781 L 290.105469 80.675781 L 290.105469 285.894531 L 84.886719 285.894531 Z M 84.886719 80.675781 " clip-rule="nonzero"/></clipPath><clipPath id="cc97b37ed3"><path d="M 187.496094 80.675781 C 130.828125 80.675781 84.886719 126.617188 84.886719 183.285156 C 84.886719 239.957031 130.828125 285.894531 187.496094 285.894531 C 244.167969 285.894531 290.105469 239.957031 290.105469 183.285156 C 290.105469 126.617188 244.167969 80.675781 187.496094 80.675781 Z M 187.496094 80.675781 " clip-rule="nonzero"/></clipPath><clipPath id="1ac0a00fb5"><path d="M 79.503906 240.765625 L 295.496094 240.765625 L 295.496094 304.984375 L 79.503906 304.984375 Z M 79.503906 240.765625 " clip-rule="nonzero"/></clipPath><clipPath id="31ac78d213"><path d="M 162 99.277344 L 210 99.277344 L 210 199 L 162 199 Z M 162 99.277344 " clip-rule="nonzero"/></clipPath><clipPath id="76a0fd838d"><path d="M 116.71875 205 L 166 205 L 166 238 L 116.71875 238 Z M 116.71875 205 " clip-rule="nonzero"/></clipPath><clipPath id="1addac46af"><path d="M 218 222 L 258.46875 222 L 258.46875 249.277344 L 218 249.277344 Z M 218 222 " clip-rule="nonzero"/></clipPath></defs><rect x="-37.5" width="450" fill="#ffffff" y="-37.499999" height="449.999989" fill-opacity="1"/><rect x="-37.5" width="450" fill="#ffffff" y="-37.499999" height="449.999989" fill-opacity="1"/><g clip-path="url(#2fd7625322)"><g clip-path="url(#46abeedf0d)"><path stroke-linecap="butt" transform="matrix(0.75, 0, 0, 0.75, 79.505654, 75.29585)" fill="none" stroke-linejoin="miter" d="M 143.992471 0.00136633 C 64.466424 0.00136633 -0.00232991 64.464912 -0.00232991 143.990959 C -0.00232991 223.517006 64.466424 287.98576 143.992471 287.98576 C 223.518518 287.98576 287.982064 223.517006 287.982064 143.990959 C 287.982064 64.464912 223.518518 0.00136633 143.992471 0.00136633 Z M 143.992471 0.00136633 " stroke="#383535" stroke-width="8" stroke-opacity="1" stroke-miterlimit="4"/></g></g><g clip-path="url(#9bf0ed1cb5)"><g clip-path="url(#cc97b37ed3)"><path stroke-linecap="butt" transform="matrix(0.75, 0, 0, 0.75, 84.887255, 80.677452)" fill="none" stroke-linejoin="miter" d="M 136.811794 -0.002227 C 61.254497 -0.002227 -0.000714901 61.252985 -0.000714901 136.810282 C -0.000714901 212.372787 61.254497 273.622791 136.811794 273.622791 C 212.374299 273.622791 273.624303 212.372787 273.624303 136.810282 C 273.624303 61.252985 212.374299 -0.002227 136.811794 -0.002227 Z M 136.811794 -0.002227 " stroke="#383535" stroke-width="2" stroke-opacity="1" stroke-miterlimit="4"/></g></g><g clip-path="url(#1ac0a00fb5)"><path fill="#ffffff" d="M 79.503906 240.765625 L 295.496094 240.765625 L 295.496094 304.984375 L 79.503906 304.984375 Z M 79.503906 240.765625 " fill-opacity="1" fill-rule="nonzero"/></g><path fill="#ceaf83" d="M 232.207031 178.695312 L 211.546875 164.109375 L 211.546875 161.945312 L 232.207031 176.53125 Z M 232.207031 183.75 L 211.546875 169.164062 L 211.546875 167.003906 L 232.207031 181.589844 Z M 232.207031 188.808594 L 211.546875 174.222656 L 211.546875 172.0625 L 232.207031 186.644531 Z M 232.207031 193.863281 L 211.546875 179.277344 L 211.546875 177.117188 L 232.207031 191.699219 Z M 232.207031 198.917969 L 211.546875 184.335938 L 211.546875 182.175781 L 232.207031 196.757812 Z M 232.207031 203.976562 L 211.546875 189.390625 L 211.546875 187.230469 L 232.207031 201.8125 Z M 232.207031 209.03125 L 211.546875 194.449219 L 211.546875 192.285156 L 232.207031 206.871094 Z M 211.546875 157.421875 L 207.085938 159.992188 L 207.085938 199.6875 L 209.113281 199.941406 L 210.132812 200.074219 L 210.875 200.78125 L 215.425781 205.132812 L 226.71875 213.109375 L 230.140625 212.628906 L 211.546875 199.503906 L 211.546875 197.34375 L 232.207031 211.925781 L 232.207031 212.339844 L 232.789062 212.261719 L 234.535156 212.015625 L 234.777344 212.316406 L 234.777344 173.820312 Z M 202.90625 162.402344 L 202.90625 178.859375 L 201.761719 178.859375 L 201.761719 163.058594 L 197.769531 165.363281 L 197.769531 191.09375 L 196.972656 191.09375 L 196.972656 165.820312 L 194.367188 167.320312 L 194.367188 194.171875 L 202.707031 194.171875 L 202.707031 199.136719 L 205.414062 199.476562 L 205.414062 160.957031 L 202.90625 162.402344 " fill-opacity="1" fill-rule="nonzero"/><path fill="#383535" d="M 192.082031 225.605469 L 192.308594 225.800781 L 192.308594 227.585938 L 192.082031 227.390625 L 191.261719 226.660156 L 191.261719 224.875 L 192.082031 225.605469 " fill-opacity="1" fill-rule="nonzero"/><g clip-path="url(#31ac78d213)"><path fill="#383535" d="M 208.082031 134.605469 L 203.074219 130.167969 L 203.074219 120.269531 L 208.082031 124.707031 Z M 208.082031 146.289062 L 203.074219 141.855469 L 203.074219 131.953125 L 208.082031 136.390625 Z M 202.171875 129.371094 L 198.917969 126.492188 L 197.164062 124.9375 L 197.164062 115.039062 L 198.917969 116.589844 L 202.171875 119.472656 Z M 202.171875 141.054688 L 198.917969 138.175781 L 197.164062 136.621094 L 197.164062 126.722656 L 198.917969 128.277344 L 202.171875 131.15625 Z M 202.171875 152.742188 L 198.917969 149.859375 L 197.164062 148.308594 L 197.164062 138.410156 L 198.917969 139.964844 L 202.171875 142.84375 Z M 196.265625 124.140625 L 195.503906 123.464844 L 192.082031 120.441406 L 191.257812 119.707031 L 191.257812 109.8125 L 192.082031 110.542969 L 195.503906 113.566406 L 196.265625 114.242188 Z M 196.265625 135.824219 L 195.503906 135.148438 L 192.082031 132.128906 L 191.257812 131.394531 L 191.257812 121.496094 L 192.082031 122.226562 L 195.503906 125.25 L 196.265625 125.925781 Z M 196.265625 147.511719 L 195.503906 146.835938 L 192.082031 143.8125 L 191.257812 143.078125 L 191.257812 133.179688 L 192.082031 133.914062 L 195.503906 136.9375 L 196.265625 137.613281 Z M 196.265625 159.195312 L 195.503906 158.519531 L 192.082031 155.5 L 191.257812 154.765625 L 191.257812 144.867188 L 192.082031 145.597656 L 195.503906 148.621094 L 196.265625 149.296875 Z M 190.355469 118.910156 L 188.664062 117.417969 L 185.683594 114.777344 L 185.34375 114.476562 L 185.34375 104.578125 L 185.683594 104.878906 L 188.664062 107.519531 L 190.355469 109.015625 Z M 190.355469 130.597656 L 188.664062 129.101562 L 185.683594 126.460938 L 185.34375 126.164062 L 185.34375 116.265625 L 185.683594 116.566406 L 188.664062 119.203125 L 190.355469 120.699219 Z M 190.355469 142.28125 L 188.664062 140.789062 L 185.683594 138.148438 L 185.34375 137.847656 L 185.34375 127.949219 L 185.683594 128.25 L 188.664062 130.890625 L 190.355469 132.386719 Z M 190.355469 153.96875 L 188.664062 152.46875 L 185.683594 149.832031 L 185.34375 149.53125 L 185.34375 139.632812 L 185.683594 139.933594 L 188.664062 142.574219 L 190.355469 144.066406 Z M 190.355469 165.652344 L 188.664062 164.15625 L 185.683594 161.515625 L 185.34375 161.21875 L 185.34375 151.316406 L 185.683594 151.617188 L 188.664062 154.257812 L 190.355469 155.753906 Z M 190.355469 177.335938 L 188.664062 175.839844 L 185.683594 173.203125 L 185.34375 172.898438 L 185.34375 163.003906 L 185.683594 163.300781 L 188.664062 165.941406 L 190.355469 167.4375 Z M 190.355469 189.019531 L 188.664062 187.523438 L 185.683594 184.886719 L 185.34375 184.585938 L 185.34375 174.6875 L 185.683594 174.988281 L 188.664062 177.628906 L 190.355469 179.121094 Z M 208.1875 121.625 L 202.125 116.257812 L 198.707031 113.234375 L 195.292969 110.210938 L 191.871094 107.1875 L 188.457031 104.160156 L 185.472656 101.519531 L 183.003906 99.335938 L 162.960938 113.8125 L 162.960938 136.15625 L 176.761719 141.769531 L 178.042969 142.289062 L 178.042969 196.921875 L 187.503906 198.183594 L 185.683594 196.570312 L 185.34375 196.269531 L 185.34375 186.375 L 185.683594 186.671875 L 188.664062 189.3125 L 190.355469 190.808594 L 190.355469 194.171875 L 191.257812 194.171875 L 191.257812 191.605469 L 191.261719 191.609375 L 191.261719 189.820312 L 191.257812 189.816406 L 191.257812 179.921875 L 191.261719 179.925781 L 191.261719 178.136719 L 191.257812 178.132812 L 191.257812 168.234375 L 191.261719 168.238281 L 191.261719 166.453125 L 191.257812 166.449219 L 191.257812 156.550781 L 192.082031 157.28125 L 195.503906 160.304688 L 196.265625 160.980469 L 196.265625 162.644531 L 197.164062 162.125 L 197.164062 161.777344 L 197.402344 161.988281 L 198.621094 161.285156 L 197.164062 159.992188 L 197.164062 150.09375 L 198.917969 151.648438 L 202.171875 154.527344 L 202.171875 159.238281 L 203.074219 158.71875 L 203.074219 155.324219 L 205.394531 157.378906 L 205.535156 157.300781 L 206.617188 156.675781 L 203.074219 153.539062 L 203.074219 143.640625 L 208.082031 148.078125 L 208.082031 155.832031 L 209.667969 154.917969 L 209.667969 122.9375 L 208.1875 121.625 " fill-opacity="1" fill-rule="nonzero"/></g><path fill="#ceaf83" d="M 140.210938 151.183594 L 157.554688 141.492188 L 157.554688 145.4375 L 159.492188 144.0625 L 174.898438 150.328125 L 174.898438 144.761719 L 157.96875 137.878906 L 140.210938 151.183594 " fill-opacity="1" fill-rule="nonzero"/><path fill="#ceaf83" d="M 140.210938 160.449219 L 157.554688 150.757812 L 157.554688 154.699219 L 159.492188 153.328125 L 174.898438 159.589844 L 174.898438 154.027344 L 157.96875 147.140625 L 140.210938 160.449219 " fill-opacity="1" fill-rule="nonzero"/><path fill="#ceaf83" d="M 140.210938 169.710938 L 157.554688 160.019531 L 157.554688 163.964844 L 159.492188 162.589844 L 174.898438 168.855469 L 174.898438 163.292969 L 157.96875 156.40625 L 140.210938 169.710938 " fill-opacity="1" fill-rule="nonzero"/><path fill="#ceaf83" d="M 140.210938 178.976562 L 157.554688 169.285156 L 157.554688 173.226562 L 159.492188 171.855469 L 174.898438 178.121094 L 174.898438 172.554688 L 157.96875 165.671875 L 140.210938 178.976562 " fill-opacity="1" fill-rule="nonzero"/><path fill="#ceaf83" d="M 140.210938 188.242188 L 157.554688 178.546875 L 157.554688 182.492188 L 159.492188 181.117188 L 174.898438 187.382812 L 174.898438 181.820312 L 157.96875 174.933594 L 140.210938 188.242188 " fill-opacity="1" fill-rule="nonzero"/><path fill="#ceaf83" d="M 140.210938 197.503906 L 144.550781 194.253906 L 143.34375 195.753906 Z M 140.210938 197.503906 " fill-opacity="1" fill-rule="nonzero"/><path fill="#ceaf83" d="M 174.898438 191.082031 L 174.898438 196.648438 L 174.367188 196.429688 L 159.492188 190.382812 L 157.554688 191.757812 L 157.554688 187.8125 L 148.34375 192.960938 L 147.59375 192.859375 L 146.589844 192.722656 L 157.96875 184.199219 L 174.898438 191.082031 " fill-opacity="1" fill-rule="nonzero"/><path fill="#ceaf83" d="M 160.828125 194.625 L 157.082031 194.125 L 157.96875 193.460938 Z M 160.828125 194.625 " fill-opacity="1" fill-rule="nonzero"/><g clip-path="url(#76a0fd838d)"><path fill="#383535" d="M 165.496094 224.394531 C 165.179688 224.128906 153.09375 216.09375 147.179688 211.261719 L 116.714844 237.15625 L 144.917969 207.515625 L 147.179688 205.140625 L 151.015625 209.171875 L 165.496094 224.394531 " fill-opacity="1" fill-rule="nonzero"/></g><path fill="#ceaf83" d="M 200.617188 213.332031 L 188.578125 213.332031 L 188.578125 217.5 L 183.804688 218.082031 L 182.773438 218.207031 L 182.027344 218.921875 L 173.148438 227.417969 L 147.179688 200.128906 L 125.5625 222.847656 L 147.179688 195.9375 L 190.246094 201.683594 L 190.246094 206.949219 L 192.511719 209.332031 L 192.511719 197.28125 L 199.597656 197.28125 L 199.597656 201.878906 L 208.726562 203.027344 L 220.210938 214.015625 L 200.617188 216.75 L 200.617188 213.332031 " fill-opacity="1" fill-rule="nonzero"/><path fill="#383535" d="M 141.25 226.578125 L 141.25 227.914062 L 146.148438 227.914062 L 146.148438 221.679688 C 143.441406 221.679688 141.25 223.871094 141.25 226.578125 " fill-opacity="1" fill-rule="nonzero"/><path fill="#383535" d="M 148.078125 221.679688 L 148.078125 227.914062 L 152.976562 227.914062 L 152.976562 226.578125 C 152.976562 223.871094 150.785156 221.679688 148.078125 221.679688 " fill-opacity="1" fill-rule="nonzero"/><path fill="#383535" d="M 141.25 234.734375 L 146.148438 234.734375 L 146.148438 229.835938 L 141.25 229.835938 L 141.25 234.734375 " fill-opacity="1" fill-rule="nonzero"/><path fill="#383535" d="M 148.078125 234.734375 L 152.976562 234.734375 L 152.976562 229.835938 L 148.078125 229.835938 L 148.078125 234.734375 " fill-opacity="1" fill-rule="nonzero"/><g clip-path="url(#1addac46af)"><path fill="#ceaf83" d="M 258.273438 249.234375 L 240.660156 234.269531 L 233.21875 227.941406 C 230.960938 229.785156 227.613281 232.191406 224.648438 234.269531 C 221.21875 236.667969 218.292969 238.621094 218.152344 238.738281 L 222.40625 234.269531 L 230.0625 226.222656 L 231.441406 224.769531 L 233.21875 222.90625 L 235.078125 224.859375 L 258.273438 249.234375 " fill-opacity="1" fill-rule="nonzero"/></g><path fill="#383535" d="M 250.996094 237.464844 L 233.21875 218.78125 L 229.390625 222.804688 L 218.484375 234.269531 L 206.5 246.859375 L 157.335938 246.859375 L 175.289062 229.671875 L 184.175781 221.167969 L 191.683594 220.253906 L 191.683594 216.441406 L 197.511719 216.441406 L 197.511719 226.351562 L 199.375 224.390625 L 199.375 220.0625 L 223.070312 216.753906 L 233.21875 215.335938 L 250.996094 237.464844 " fill-opacity="1" fill-rule="nonzero"/><path fill="#ceaf83" d="M 238.097656 240.535156 L 238.097656 241.632812 L 234.066406 241.632812 L 234.066406 236.503906 C 236.292969 236.503906 238.097656 238.308594 238.097656 240.535156 " fill-opacity="1" fill-rule="nonzero"/><path fill="#ceaf83" d="M 232.480469 236.503906 L 232.480469 241.632812 L 228.449219 241.632812 L 228.449219 240.535156 C 228.449219 238.308594 230.253906 236.503906 232.480469 236.503906 " fill-opacity="1" fill-rule="nonzero"/><path fill="#ceaf83" d="M 238.097656 247.246094 L 234.066406 247.246094 L 234.066406 243.214844 L 238.097656 243.214844 L 238.097656 247.246094 " fill-opacity="1" fill-rule="nonzero"/><path fill="#ceaf83" d="M 232.480469 247.246094 L 228.449219 247.246094 L 228.449219 243.214844 L 232.480469 243.214844 L 232.480469 247.246094 " fill-opacity="1" fill-rule="nonzero"/><path fill="#383535" d="M 174.367188 196.429688 L 174.898438 196.648438 L 174.898438 196.503906 Z M 174.367188 196.429688 " fill-opacity="1" fill-rule="nonzero"/><g fill="#383535" fill-opacity="1"><g transform="translate(146.044528, 300.569772)"><g><path d="M 4.5625 0.125 C 3.78125 0.125 3.070312 -0.0390625 2.4375 -0.375 C 1.8125 -0.71875 1.316406 -1.1875 0.953125 -1.78125 C 0.597656 -2.382812 0.421875 -3.0625 0.421875 -3.8125 C 0.421875 -4.570312 0.597656 -5.25 0.953125 -5.84375 C 1.316406 -6.445312 1.8125 -6.914062 2.4375 -7.25 C 3.070312 -7.59375 3.78125 -7.765625 4.5625 -7.765625 C 5.226562 -7.765625 5.828125 -7.644531 6.359375 -7.40625 C 6.898438 -7.175781 7.347656 -6.84375 7.703125 -6.40625 L 6.578125 -5.359375 C 6.054688 -5.960938 5.414062 -6.265625 4.65625 -6.265625 C 4.1875 -6.265625 3.765625 -6.160156 3.390625 -5.953125 C 3.015625 -5.742188 2.722656 -5.453125 2.515625 -5.078125 C 2.316406 -4.710938 2.21875 -4.289062 2.21875 -3.8125 C 2.21875 -3.34375 2.316406 -2.921875 2.515625 -2.546875 C 2.722656 -2.179688 3.015625 -1.894531 3.390625 -1.6875 C 3.765625 -1.476562 4.1875 -1.375 4.65625 -1.375 C 5.414062 -1.375 6.054688 -1.675781 6.578125 -2.28125 L 7.703125 -1.234375 C 7.347656 -0.785156 6.898438 -0.445312 6.359375 -0.21875 C 5.816406 0.0078125 5.21875 0.125 4.5625 0.125 Z M 4.5625 0.125 "/></g></g></g><g fill="#383535" fill-opacity="1"><g transform="translate(154.874593, 300.569772)"><g><path d="M 6.8125 -1.421875 L 6.8125 0 L 0.90625 0 L 0.90625 -7.640625 L 6.671875 -7.640625 L 6.671875 -6.21875 L 2.65625 -6.21875 L 2.65625 -4.5625 L 6.203125 -4.5625 L 6.203125 -3.1875 L 2.65625 -3.1875 L 2.65625 -1.421875 Z M 6.8125 -1.421875 "/></g></g></g><g fill="#383535" fill-opacity="1"><g transform="translate(163.028848, 300.569772)"><g><path d="M 7.90625 -7.640625 L 7.90625 0 L 6.453125 0 L 2.65625 -4.640625 L 2.65625 0 L 0.90625 0 L 0.90625 -7.640625 L 2.359375 -7.640625 L 6.15625 -3 L 6.15625 -7.640625 Z M 7.90625 -7.640625 "/></g></g></g><g fill="#383535" fill-opacity="1"><g transform="translate(172.676432, 300.569772)"><g><path d="M 6.0625 -3.9375 L 7.671875 -3.9375 L 7.671875 -0.84375 C 7.265625 -0.53125 6.785156 -0.289062 6.234375 -0.125 C 5.691406 0.0390625 5.144531 0.125 4.59375 0.125 C 3.800781 0.125 3.085938 -0.0390625 2.453125 -0.375 C 1.816406 -0.71875 1.316406 -1.1875 0.953125 -1.78125 C 0.597656 -2.382812 0.421875 -3.0625 0.421875 -3.8125 C 0.421875 -4.570312 0.597656 -5.25 0.953125 -5.84375 C 1.316406 -6.445312 1.816406 -6.914062 2.453125 -7.25 C 3.097656 -7.59375 3.820312 -7.765625 4.625 -7.765625 C 5.289062 -7.765625 5.894531 -7.648438 6.4375 -7.421875 C 6.988281 -7.203125 7.445312 -6.878906 7.8125 -6.453125 L 6.6875 -5.40625 C 6.144531 -5.976562 5.488281 -6.265625 4.71875 -6.265625 C 4.226562 -6.265625 3.789062 -6.160156 3.40625 -5.953125 C 3.03125 -5.753906 2.738281 -5.46875 2.53125 -5.09375 C 2.320312 -4.71875 2.21875 -4.289062 2.21875 -3.8125 C 2.21875 -3.34375 2.320312 -2.921875 2.53125 -2.546875 C 2.738281 -2.179688 3.03125 -1.894531 3.40625 -1.6875 C 3.78125 -1.476562 4.207031 -1.375 4.6875 -1.375 C 5.195312 -1.375 5.65625 -1.484375 6.0625 -1.703125 Z M 6.0625 -3.9375 "/></g></g></g><g fill="#383535" fill-opacity="1"><g transform="translate(181.920705, 300.569772)"><g><path d="M 0.90625 -7.640625 L 2.671875 -7.640625 L 2.671875 0 L 0.90625 0 Z M 1.796875 -8.3125 C 1.523438 -8.3125 1.300781 -8.394531 1.125 -8.5625 C 0.957031 -8.738281 0.875 -8.960938 0.875 -9.234375 C 0.875 -9.492188 0.957031 -9.710938 1.125 -9.890625 C 1.300781 -10.066406 1.523438 -10.15625 1.796875 -10.15625 C 2.054688 -10.15625 2.269531 -10.066406 2.4375 -9.890625 C 2.613281 -9.710938 2.703125 -9.492188 2.703125 -9.234375 C 2.703125 -8.960938 2.613281 -8.738281 2.4375 -8.5625 C 2.269531 -8.394531 2.054688 -8.3125 1.796875 -8.3125 Z M 1.796875 -8.3125 "/></g></g></g><g fill="#383535" fill-opacity="1"><g transform="translate(186.336203, 300.569772)"><g><path d="M 7.09375 -1.4375 L 7.09375 0 L 0.421875 0 L 0.421875 -1.140625 L 4.609375 -6.1875 L 0.5 -6.1875 L 0.5 -7.640625 L 6.921875 -7.640625 L 6.921875 -6.484375 L 2.75 -1.4375 Z M 7.09375 -1.4375 "/></g></g></g><g fill="#383535" fill-opacity="1"><g transform="translate(194.490456, 300.569772)"><g/></g></g><g fill="#383535" fill-opacity="1"><g transform="translate(198.415441, 300.569772)"><g><path d="M 5.9375 -1.640625 L 2.390625 -1.640625 L 1.71875 0 L -0.09375 0 L 3.296875 -7.640625 L 5.046875 -7.640625 L 8.46875 0 L 6.609375 0 Z M 5.375 -2.984375 L 4.171875 -5.90625 L 2.953125 -2.984375 Z M 5.375 -2.984375 "/></g></g></g><g fill="#383535" fill-opacity="1"><g transform="translate(207.605211, 300.569772)"><g><path d="M 5.765625 0 L 4.296875 -2.125 L 2.671875 -2.125 L 2.671875 0 L 0.90625 0 L 0.90625 -7.640625 L 4.203125 -7.640625 C 4.878906 -7.640625 5.46875 -7.523438 5.96875 -7.296875 C 6.46875 -7.066406 6.851562 -6.742188 7.125 -6.328125 C 7.394531 -5.921875 7.53125 -5.429688 7.53125 -4.859375 C 7.53125 -4.296875 7.390625 -3.804688 7.109375 -3.390625 C 6.835938 -2.984375 6.453125 -2.671875 5.953125 -2.453125 L 7.671875 0 Z M 5.734375 -4.859375 C 5.734375 -5.285156 5.59375 -5.613281 5.3125 -5.84375 C 5.039062 -6.070312 4.640625 -6.1875 4.109375 -6.1875 L 2.671875 -6.1875 L 2.671875 -3.53125 L 4.109375 -3.53125 C 4.640625 -3.53125 5.039062 -3.644531 5.3125 -3.875 C 5.59375 -4.113281 5.734375 -4.441406 5.734375 -4.859375 Z M 5.734375 -4.859375 "/></g></g></g><g fill="#383535" fill-opacity="1"><g transform="translate(216.457076, 300.569772)"><g><path d="M 0.90625 -7.640625 L 2.671875 -7.640625 L 2.671875 0 L 0.90625 0 Z M 0.90625 -7.640625 "/></g></g></g><g fill="#383535" fill-opacity="1"><g transform="translate(220.872574, 300.569772)"><g><path d="M 3.6875 -3 L 2.65625 -1.9375 L 2.65625 0 L 0.90625 0 L 0.90625 -7.640625 L 2.65625 -7.640625 L 2.65625 -4.0625 L 6.046875 -7.640625 L 8 -7.640625 L 4.84375 -4.234375 L 8.1875 0 L 6.125 0 Z M 3.6875 -3 "/></g></g></g><g fill="#383535" fill-opacity="1"><g transform="translate(60.732103, 283.614235)"><g><path d="M 17.078125 -5.046875 L 6.171875 -5.046875 L 4.015625 0 L -0.15625 0 L 9.65625 -21.8125 L 13.640625 -21.8125 L 23.484375 0 L 19.25 0 Z M 15.734375 -8.21875 L 11.625 -17.765625 L 7.546875 -8.21875 Z M 15.734375 -8.21875 "/></g></g></g><g fill="#383535" fill-opacity="1"><g transform="translate(84.064418, 283.614235)"><g><path d="M 17.203125 0 L 12.75 -6.390625 C 12.5625 -6.367188 12.28125 -6.359375 11.90625 -6.359375 L 6.984375 -6.359375 L 6.984375 0 L 2.921875 0 L 2.921875 -21.8125 L 11.90625 -21.8125 C 13.789062 -21.8125 15.429688 -21.5 16.828125 -20.875 C 18.234375 -20.25 19.3125 -19.351562 20.0625 -18.1875 C 20.8125 -17.03125 21.1875 -15.648438 21.1875 -14.046875 C 21.1875 -12.410156 20.785156 -11 19.984375 -9.8125 C 19.179688 -8.625 18.035156 -7.742188 16.546875 -7.171875 L 21.5625 0 Z M 17.109375 -14.046875 C 17.109375 -15.441406 16.648438 -16.507812 15.734375 -17.25 C 14.816406 -18 13.476562 -18.375 11.71875 -18.375 L 6.984375 -18.375 L 6.984375 -9.6875 L 11.71875 -9.6875 C 13.476562 -9.6875 14.816406 -10.066406 15.734375 -10.828125 C 16.648438 -11.585938 17.109375 -12.660156 17.109375 -14.046875 Z M 17.109375 -14.046875 "/></g></g></g><g fill="#383535" fill-opacity="1"><g transform="translate(106.835999, 283.614235)"><g><path d="M 2.921875 -21.8125 L 6.984375 -21.8125 L 6.984375 0 L 2.921875 0 Z M 2.921875 -21.8125 "/></g></g></g><g fill="#383535" fill-opacity="1"><g transform="translate(116.773261, 283.614235)"><g><path d="M 10.4375 -9.125 L 6.984375 -5.578125 L 6.984375 0 L 2.921875 0 L 2.921875 -21.8125 L 6.984375 -21.8125 L 6.984375 -10.625 L 17.765625 -21.8125 L 22.3125 -21.8125 L 13.140625 -12.0625 L 22.875 0 L 18.140625 0 Z M 10.4375 -9.125 "/></g></g></g><g fill="#383535" fill-opacity="1"><g transform="translate(139.482547, 283.614235)"><g><path d="M 13.015625 0.3125 C 10.816406 0.3125 8.828125 -0.171875 7.046875 -1.140625 C 5.273438 -2.109375 3.882812 -3.441406 2.875 -5.140625 C 1.875 -6.847656 1.375 -8.769531 1.375 -10.90625 C 1.375 -13.039062 1.878906 -14.957031 2.890625 -16.65625 C 3.910156 -18.363281 5.304688 -19.703125 7.078125 -20.671875 C 8.859375 -21.640625 10.847656 -22.125 13.046875 -22.125 C 14.835938 -22.125 16.46875 -21.8125 17.9375 -21.1875 C 19.414062 -20.5625 20.664062 -19.65625 21.6875 -18.46875 L 19.0625 -16.015625 C 17.488281 -17.710938 15.546875 -18.5625 13.234375 -18.5625 C 11.742188 -18.5625 10.40625 -18.234375 9.21875 -17.578125 C 8.039062 -16.929688 7.117188 -16.023438 6.453125 -14.859375 C 5.785156 -13.691406 5.453125 -12.375 5.453125 -10.90625 C 5.453125 -9.425781 5.785156 -8.101562 6.453125 -6.9375 C 7.117188 -5.78125 8.039062 -4.875 9.21875 -4.21875 C 10.40625 -3.5625 11.742188 -3.234375 13.234375 -3.234375 C 15.546875 -3.234375 17.488281 -4.097656 19.0625 -5.828125 L 21.6875 -3.328125 C 20.664062 -2.148438 19.410156 -1.25 17.921875 -0.625 C 16.441406 0 14.804688 0.3125 13.015625 0.3125 Z M 13.015625 0.3125 "/></g></g></g><g fill="#383535" fill-opacity="1"><g transform="translate(162.129522, 283.614235)"><g><path d="M 17.078125 -5.046875 L 6.171875 -5.046875 L 4.015625 0 L -0.15625 0 L 9.65625 -21.8125 L 13.640625 -21.8125 L 23.484375 0 L 19.25 0 Z M 15.734375 -8.21875 L 11.625 -17.765625 L 7.546875 -8.21875 Z M 15.734375 -8.21875 "/></g></g></g><g fill="#383535" fill-opacity="1"><g transform="translate(185.461837, 283.614235)"><g/></g></g><g fill="#383535" fill-opacity="1"><g transform="translate(194.059595, 283.614235)"><g><path d="M 2.921875 -21.8125 L 6.984375 -21.8125 L 6.984375 0 L 2.921875 0 Z M 4.953125 -23.953125 C 4.304688 -23.953125 3.773438 -24.160156 3.359375 -24.578125 C 2.941406 -24.992188 2.734375 -25.523438 2.734375 -26.171875 C 2.734375 -26.816406 2.941406 -27.347656 3.359375 -27.765625 C 3.773438 -28.179688 4.304688 -28.390625 4.953125 -28.390625 C 5.597656 -28.390625 6.125 -28.179688 6.53125 -27.765625 C 6.945312 -27.347656 7.15625 -26.816406 7.15625 -26.171875 C 7.15625 -25.523438 6.945312 -24.992188 6.53125 -24.578125 C 6.125 -24.160156 5.597656 -23.953125 4.953125 -23.953125 Z M 4.953125 -23.953125 "/></g></g></g><g fill="#383535" fill-opacity="1"><g transform="translate(203.996857, 283.614235)"><g><path d="M 22.3125 -21.8125 L 22.3125 0 L 18.96875 0 L 6.953125 -14.765625 L 6.953125 0 L 2.921875 0 L 2.921875 -21.8125 L 6.265625 -21.8125 L 18.28125 -7.046875 L 18.28125 -21.8125 Z M 22.3125 -21.8125 "/></g></g></g><g fill="#383535" fill-opacity="1"><g transform="translate(229.229396, 283.614235)"><g><path d="M 9.6875 0.3125 C 8.007812 0.3125 6.382812 0.0703125 4.8125 -0.40625 C 3.25 -0.882812 2.007812 -1.519531 1.09375 -2.3125 L 2.5 -5.453125 C 3.382812 -4.742188 4.476562 -4.164062 5.78125 -3.71875 C 7.082031 -3.269531 8.382812 -3.046875 9.6875 -3.046875 C 11.3125 -3.046875 12.519531 -3.304688 13.3125 -3.828125 C 14.113281 -4.347656 14.515625 -5.035156 14.515625 -5.890625 C 14.515625 -6.515625 14.289062 -7.023438 13.84375 -7.421875 C 13.394531 -7.828125 12.828125 -8.144531 12.140625 -8.375 C 11.460938 -8.601562 10.53125 -8.863281 9.34375 -9.15625 C 7.6875 -9.550781 6.34375 -9.945312 5.3125 -10.34375 C 4.28125 -10.738281 3.394531 -11.351562 2.65625 -12.1875 C 1.925781 -13.03125 1.5625 -14.171875 1.5625 -15.609375 C 1.5625 -16.816406 1.882812 -17.910156 2.53125 -18.890625 C 3.1875 -19.878906 4.175781 -20.664062 5.5 -21.25 C 6.820312 -21.832031 8.4375 -22.125 10.34375 -22.125 C 11.675781 -22.125 12.984375 -21.957031 14.265625 -21.625 C 15.554688 -21.289062 16.671875 -20.8125 17.609375 -20.1875 L 16.328125 -17.046875 C 15.367188 -17.609375 14.367188 -18.03125 13.328125 -18.3125 C 12.296875 -18.601562 11.289062 -18.75 10.3125 -18.75 C 8.707031 -18.75 7.515625 -18.476562 6.734375 -17.9375 C 5.960938 -17.40625 5.578125 -16.691406 5.578125 -15.796875 C 5.578125 -15.171875 5.800781 -14.660156 6.25 -14.265625 C 6.695312 -13.867188 7.257812 -13.554688 7.9375 -13.328125 C 8.625 -13.097656 9.5625 -12.84375 10.75 -12.5625 C 12.363281 -12.1875 13.691406 -11.796875 14.734375 -11.390625 C 15.773438 -10.984375 16.660156 -10.363281 17.390625 -9.53125 C 18.128906 -8.695312 18.5 -7.578125 18.5 -6.171875 C 18.5 -4.960938 18.171875 -3.867188 17.515625 -2.890625 C 16.867188 -1.921875 15.878906 -1.144531 14.546875 -0.5625 C 13.222656 0.0195312 11.601562 0.3125 9.6875 0.3125 Z M 9.1875 7.109375 C 8.0625 7.109375 7.109375 6.890625 6.328125 6.453125 L 7.03125 4.609375 C 7.675781 4.941406 8.382812 5.109375 9.15625 5.109375 C 10.257812 5.109375 10.8125 4.734375 10.8125 3.984375 C 10.8125 3.671875 10.675781 3.421875 10.40625 3.234375 C 10.132812 3.046875 9.71875 2.953125 9.15625 2.953125 L 8.1875 2.953125 L 9.03125 -0.21875 L 11.15625 -0.21875 L 10.71875 1.53125 C 11.601562 1.632812 12.273438 1.914062 12.734375 2.375 C 13.191406 2.84375 13.421875 3.429688 13.421875 4.140625 C 13.421875 5.035156 13.035156 5.753906 12.265625 6.296875 C 11.503906 6.835938 10.476562 7.109375 9.1875 7.109375 Z M 9.1875 7.109375 "/></g></g></g><g fill="#383535" fill-opacity="1"><g transform="translate(248.823546, 283.614235)"><g><path d="M 17.078125 -5.046875 L 6.171875 -5.046875 L 4.015625 0 L -0.15625 0 L 9.65625 -21.8125 L 13.640625 -21.8125 L 23.484375 0 L 19.25 0 Z M 15.734375 -8.21875 L 11.625 -17.765625 L 7.546875 -8.21875 Z M 15.734375 -8.21875 "/></g></g></g><g fill="#383535" fill-opacity="1"><g transform="translate(272.155861, 283.614235)"><g><path d="M 17.078125 -5.046875 L 6.171875 -5.046875 L 4.015625 0 L -0.15625 0 L 9.65625 -21.8125 L 13.640625 -21.8125 L 23.484375 0 L 19.25 0 Z M 15.734375 -8.21875 L 11.625 -17.765625 L 7.546875 -8.21875 Z M 15.734375 -8.21875 "/></g></g></g><g fill="#383535" fill-opacity="1"><g transform="translate(295.488176, 283.614235)"><g><path d="M 7.359375 -18.375 L 0.125 -18.375 L 0.125 -21.8125 L 18.625 -21.8125 L 18.625 -18.375 L 11.40625 -18.375 L 11.40625 0 L 7.359375 0 Z M 7.359375 -18.375 "/></g></g></g></svg>

